<svg xmlns="http://www.w3.org/2000/svg" x="0px" y="0px"
width="28" height="28"
viewBox="0 0 512 512"
style=" fill:#000000;"><g data-name="<Group>"><path fill="#00efd1" d="M389.63,63.73V438.26a10,10,0,0,1-15.83,8.12L256,361.94,138.2,446.38a10,10,0,0,1-15.83-8.12V63.73Z"></path><path fill="#083863" d="M389.63,53.73H122.37a10,10,0,0,0-10,10V438.26a19.984,19.984,0,0,0,31.656,16.247L256,374.244l111.97,80.261a20,20,0,0,0,31.66-16.245V63.73A10,10,0,0,0,389.63,53.73Zm-10,384.522-117.8-84.44a10,10,0,0,0-11.652,0L132.37,438.26V73.73H379.63Z"></path></g></svg>